<?xml version="1.0" standalone="no"?><!DOCTYPE svg PUBLIC "-//W3C//DTD SVG 1.1//EN" "http://www.w3.org/Graphics/SVG/1.1/DTD/svg11.dtd"><svg width="600" height="750" version="1.1" xmlns="http://www.w3.org/2000/svg" xmlns:xlink="http://www.w3.org/1999/xlink"><defs xmlns="http://www.w3.org/1999/xhtml"><style type="text/css"><![CDATA[
.radar-chart .level {  stroke: grey;  stroke-width: 0.5; }
.radar-chart .axis line {  stroke: grey;  stroke-width: 1; }
.radar-chart .axis .legend {  font-family: sans-serif;  font-size: 10px; }
.radar-chart .axis .legend.top {  dy:1em;}
.radar-chart .axis .legend.left {  text-anchor: start;}
.radar-chart .axis .legend.middle {  text-anchor: middle;}
.radar-chart .axis .legend.right {  text-anchor: end;}
.radar-chart .tooltip {  font-family: sans-serif;  font-size: 13px;  transition: opacity 200ms;  opacity: 0;}
.radar-chart .tooltip.visible {  opacity: 1;}
.radar-chart .area {  stroke-width: 2;  fill-opacity: 0.5;}
.radar-chart.focus .area {  fill-opacity: 0.1;}
.radar-chart.focus .area.focused {  fill-opacity: 0.7;}
.radar-chart .circle {  fill-opacity: 0.9;}
.radar-chart .area, .radar-chart .circle {  transition: opacity 300ms, fill-opacity 200ms;  opacity: 1;}
.radar-chart .d3-enter, .radar-chart .d3-exit { opacity: 0; }
body { padding: 20px; }
.radar-chart .area { fill-opacity: 0.7; }
.radar-chart.focus .area { fill-opacity: 0.3; }
.radar-chart.focus .area.focused { fill-opacity: 0.9; }
.area.germany, .germany .circle { fill: rgb(255, 215, 0); stroke: none; }
.area.argentina, .argentina .circle { fill: rgb(173, 216, 230); stroke: none; }]]></style></defs><g class="single radar-chart"><g class="level-group level-group-0"><line class="level" x1="95" y1="0" x2="4.649630951960415" y2="65.64338553437999" transform="translate(205, 205)"/><line class="level" x1="4.649630951960415" y1="65.64338553437999" x2="39.16040103221504" y2="171.85661446562" transform="translate(205, 205)"/><line class="level" x1="39.16040103221504" y1="171.85661446562" x2="150.83959896778492" y2="171.85661446562" transform="translate(205, 205)"/><line class="level" x1="150.83959896778492" y1="171.85661446562" x2="185.3503690480396" y2="65.64338553438002" transform="translate(205, 205)"/><line class="level" x1="185.3503690480396" y1="65.64338553438002" x2="95.00000000000001" y2="0" transform="translate(205, 205)"/></g><g class="level-group level-group-1"><line class="level" x1="190" y1="0" x2="9.29926190392083" y2="131.28677106875998" transform="translate(110, 110)"/><line class="level" x1="9.29926190392083" y1="131.28677106875998" x2="78.32080206443008" y2="343.71322893124" transform="translate(110, 110)"/><line class="level" x1="78.32080206443008" y1="343.71322893124" x2="301.67919793556985" y2="343.71322893124" transform="translate(110, 110)"/><line class="level" x1="301.67919793556985" y1="343.71322893124" x2="370.7007380960792" y2="131.28677106876003" transform="translate(110, 110)"/><line class="level" x1="370.7007380960792" y1="131.28677106876003" x2="190.00000000000003" y2="0" transform="translate(110, 110)"/></g><g class="level-group level-group-2"><line class="level" x1="285" y1="0" x2="13.948892855881244" y2="196.93015660313998" transform="translate(15, 15)"/><line class="level" x1="13.948892855881244" y1="196.93015660313998" x2="117.48120309664512" y2="515.5698433968599" transform="translate(15, 15)"/><line class="level" x1="117.48120309664512" y1="515.5698433968599" x2="452.51879690335477" y2="515.56984339686" transform="translate(15, 15)"/><line class="level" x1="452.51879690335477" y1="515.56984339686" x2="556.0511071441188" y2="196.93015660314003" transform="translate(15, 15)"/><line class="level" x1="556.0511071441188" y1="196.93015660314003" x2="285.00000000000006" y2="0" transform="translate(15, 15)"/></g><g class="axis"><line x1="300" y1="300" x2="300" y2="15.000000000000014"/><text class="legend middle" dy="1em" x="300" y="0">strength</text></g><g class="axis"><line x1="300" y1="300" x2="28.948892855881258" y2="211.93015660314"/><text class="legend left" dy="0.5em" x="14.683045111453941" y="207.29490168751576">intelligence</text></g><g class="axis"><line x1="300" y1="300" x2="132.48120309664515" y2="530.5698433968599"/><text class="legend left" dy="0" x="123.66442431225802" y="542.7050983124842">charisma</text></g><g class="axis"><line x1="300" y1="300" x2="467.5187969033548" y2="530.56984339686"/><text class="legend right" dy="0" x="476.3355756877419" y="542.7050983124842">dexterity</text></g><g class="axis"><line x1="300" y1="300" x2="571.0511071441188" y2="211.93015660314003"/><text class="legend right" dy="0.5em" x="585.3169548885461" y="207.29490168751582">luck</text></g><polygon class="area radar-chart-serie0 germany" points="300,271.5 218.68466785676438,273.579046980942 199.4887218579871,438.34190603811595 367.00751876134194,392.227937358744 489.7357750008831,238.351109622198"/><polygon class="area radar-chart-serie1 argentina" points="300,15.000000000000014 272.89488928558814,291.193015660314 232.99248123865806,392.227937358744 417.2631578323483,461.39889037780193 435.5255535720594,255.96507830157"/><g class="circle-group germany"><circle class="circle radar-chart-serie0" cy="271.5" cx="300" r="3"/><circle class="circle radar-chart-serie0" cy="273.579046980942" cx="218.68466785676438" r="3"/><circle class="circle radar-chart-serie0" cy="438.34190603811595" cx="199.4887218579871" r="3"/><circle class="circle radar-chart-serie0" cy="392.227937358744" cx="367.00751876134194" r="3"/><circle class="circle radar-chart-serie0" cy="238.351109622198" cx="489.7357750008831" r="3"/></g><g class="circle-group argentina"><circle class="circle radar-chart-serie1" cy="15.000000000000014" cx="300" r="3"/><circle class="circle radar-chart-serie1" cy="291.193015660314" cx="272.89488928558814" r="3"/><circle class="circle radar-chart-serie1" cy="392.227937358744" cx="232.99248123865806" r="3"/><circle class="circle radar-chart-serie1" cy="461.39889037780193" cx="417.2631578323483" r="3"/><circle class="circle radar-chart-serie1" cy="255.96507830157" cx="435.5255535720594" r="3"/></g><text class="tooltip"/></g><g class="game radar-chart" transform="translate(0,600)"><g class="axis"><line x1="75" y1="75" x2="75" y2="3.7500000000000036"/></g><g class="axis"><line x1="75" y1="75" x2="7.2372232139703145" y2="52.982539150785"/></g><g class="axis"><line x1="75" y1="75" x2="33.12030077416129" y2="132.64246084921498"/></g><g class="axis"><line x1="75" y1="75" x2="116.8796992258387" y2="132.642460849215"/></g><g class="axis"><line x1="75" y1="75" x2="142.7627767860297" y2="52.98253915078501"/></g><polygon class="area radar-chart-serie0 germany" points="75,10.875 14.013500892573276,55.1842852357065 33.12030077416129,132.64246084921498 104.31578945808708,115.34972259445048 142.7627767860297,52.98253915078501"/><polygon class="area radar-chart-serie1 argentina" points="75,32.25000000000001 34.34233392838219,61.789523490471005 58.248120309664515,98.056984339686 104.31578945808708,115.34972259445048 95.32883303580891,68.3947617452355"/></g><g class="game radar-chart" transform="translate(150,600)"><g class="axis"><line x1="75" y1="75" x2="75" y2="3.7500000000000036"/></g><g class="axis"><line x1="75" y1="75" x2="7.2372232139703145" y2="52.982539150785"/></g><g class="axis"><line x1="75" y1="75" x2="33.12030077416129" y2="132.64246084921498"/></g><g class="axis"><line x1="75" y1="75" x2="116.8796992258387" y2="132.642460849215"/></g><g class="axis"><line x1="75" y1="75" x2="142.7627767860297" y2="52.98253915078501"/></g><polygon class="area radar-chart-serie0 germany" points="75,60.75000000000001 61.44744464279406,70.596507830157 49.87218046449677,109.58547650952899 108.50375938067097,121.11396867937201 108.88138839301484,63.9912695753925"/><polygon class="area radar-chart-serie1 argentina" points="75,53.62500000000001 7.237223213970317,52.982539150785 45.6842105419129,115.34972259445048 83.37593984516774,86.52849216984299 95.32883303580891,68.3947617452355"/></g><g class="game radar-chart" transform="translate(300,600)"><g class="axis"><line x1="75" y1="75" x2="75" y2="3.7500000000000036"/></g><g class="axis"><line x1="75" y1="75" x2="7.2372232139703145" y2="52.982539150785"/></g><g class="axis"><line x1="75" y1="75" x2="33.12030077416129" y2="132.64246084921498"/></g><g class="axis"><line x1="75" y1="75" x2="116.8796992258387" y2="132.642460849215"/></g><g class="axis"><line x1="75" y1="75" x2="142.7627767860297" y2="52.98253915078501"/></g><polygon class="area radar-chart-serie0 germany" points="75,3.7500000000000036 7.237223213970317,52.982539150785 33.12030077416129,132.64246084921498 84.30659982796416,87.80943574427 120.17518452401978,60.32169276719001"/><polygon class="area radar-chart-serie1 argentina" points="75,59.16666666666667 37.354012896650175,62.76807730599167 61.04010025805376,94.214153616405 107.57309939787454,119.833025104945 120.17518452401978,60.32169276719001"/></g><g class="game radar-chart" transform="translate(450,600)"><g class="axis"><line x1="75" y1="75" x2="75" y2="3.7500000000000036"/></g><g class="axis"><line x1="75" y1="75" x2="7.2372232139703145" y2="52.982539150785"/></g><g class="axis"><line x1="75" y1="75" x2="33.12030077416129" y2="132.64246084921498"/></g><g class="axis"><line x1="75" y1="75" x2="116.8796992258387" y2="132.642460849215"/></g><g class="axis"><line x1="75" y1="75" x2="142.7627767860297" y2="52.98253915078501"/></g><polygon class="area radar-chart-serie0 germany" points="75,46.5 7.237223213970317,52.982539150785 41.49624061932903,121.113968679372 100.12781953550322,109.58547650952899 135.9864991074267,55.184285235706504"/><polygon class="area radar-chart-serie1 argentina" points="75,3.75 68.22372232139703,72.7982539150785 54.06015038708065,103.82123042460749 116.8796992258387,132.642460849215 102.10511071441188,66.193015660314"/></g></svg>